<svg class="p-globe_illustration" version="1.1" xmlns="http://www.w3.org/2000/svg" x="0" y="0" viewBox="0 0 240 185"><path class="p-globe_illustration__shadow" fill="#000000" opacity=".5" d="M231.5 115.9c-13.3-10.9-49-13.6-88.8-6.7-52.2 9.1-92.8 30.7-92.3 49.3.1 4 2.1 7.7 5.8 10.7 8.4 6.9 25.7 10.5 47.3 10.5 12.6 0 26.8-1.2 41.4-3.8 52.2-9.1 92.8-30.7 92.3-49.3 0-4.1-2-7.7-5.7-10.7z"></path><path fill="#4A154B" d="M6.7 92.9c0 47.9 38.9 86.8 86.8 86.8s86.8-38.9 86.8-86.8c0-11.2-2.1-22-6-31.8-7-17.7-19.6-32.5-35.6-42.3-13.2-8-28.6-12.7-45.2-12.7C45.6 6.1 6.7 45 6.7 92.9z"></path><g><clipPath id="p-globe_illustration-globe-mask"><path d="M6.7 92.9c0 47.9 38.9 86.8 86.8 86.8s86.8-38.9 86.8-86.8c0-11.2-2.1-22-6-31.8-7-17.7-19.6-32.5-35.6-42.3-13.2-8-28.6-12.7-45.2-12.7C45.6 6.1 6.7 45 6.7 92.9z"></path></clipPath><g clip-path="url(#p-globe_illustration-globe-mask)"><g class="p-globe_illustration__countries" fill="#6C345E"><path d="M161.4 33.2c3.2 1.5 6.5 3 9.9 4.6 1.5.7 2.9 2.1 4.7.8.2-.2.9-.1 1.1.1 1.4 1.4 2.9.8 4.5.6.8-.1 1.7.1 2.5.1 1.3 0 2.5 0 3.8-.1.6 0 1.2-.2 1.7-.1 1.9.4 3-.4 3.9-1.9.2-.4 1.8-.5 2.4-.2 2.1 1.2 4.1 1 6.3.3 2.5-.8 5.3-.9 7.9-1.2 1.4-.2 2.9-.5 4.4-.4 1.6.1 3.2.7 4.8 1 .7.2 1.5.4 2.2.6 1.7.4 2.9 1.1 3.9 2.7.6.9 2.3 1.5 3.5 1.5 4.8.3 9.4 1 13.5 3.8.7.5 2 .7 2.7.4 2.5-1 4.8 0 7.1.7 4.1 1.1 8.5 1.9 12.3 3.9 3.9 2 8.2 1.1 12.1 2.5 4.3 1.5 8.6 3.3 12.9 5 1.5.6 3.1 1.2 4.5 2 .5.3.6 1.2.8 1.9-.7 0-1.4.3-2 .1-1-.3-1.9-1-2.9-1.3-.5-.2-1.2.1-1.9.2l.9 1.2.1.1 1.5 1.2c-.6.1-1.2.3-1.8.4h-.2c-1.8 1.6-4 1.8-6.3 2-.1 0-.4 1-.2 1.4.8 1.9 2.4 3.4 1.9 5.7-.2.9-.6 1.8-1 2.6-.1.1-.8.2-.9 0-1.8-2.2-3.6-4.4-5.1-6.8-.5-.7-.1-2.1.2-3.2.2-.9 1.4-1.8-.6-2.2-.8-.1-1.5-1-2.3-1.3-.3-.1-1 0-1.3.3-.2.1 0 .8.1 1.1.1.3.3.8.2 1-.1.2-.7.4-1 .3-1.7-.4-3.3-.9-5-1.2-1.1-.2-2.3-.4-3.4-.5-1.2-.1-3.4 2.2-3.1 3.7.2.8 1.7 1.8 2.6 1.8 3.4.2 5.3 2.2 6.7 4.9 1 1.9 1.9 3.8 2.8 5.7.1.3-.1.8-.2 1.1-.4-.2-1-.2-1.2-.5-.4-.6-.5-1.4-.9-2-.3-.5-.7-.8-1.1-1.3-.3.4-.8.8-1 1.2-.6 1.5-1.1 3.1-1.8 4.5-.3.6-1.3.7-2 1.1-.5.2-1.1.3-1.5.7-.6.6-1.2 1.3-1.6 2.1-.2.3.1.9.3 1.3.8 1.5 1.7 2.9 2.4 4.4.1.2-.4 1-.7 1-.8-.1-1.8 1.2-2.4-.4-.6-1.5-1.5-2.9-2.3-4.3-.1-.2-.2-.3-.3-.5-.3-1.9-1.2-2.3-2.8-1.3-.2.1-.8-.5-1.1-.8-.2-.2-.4-.9-.5-.8-.4 0-1 .2-1 .5-.1.6-.2 1.3.1 1.8.2.4.9.6 1.4.8.8.3 1.5.6 2.3.9.1 0 .2.4.1.4-.1.2-.3.3-.5.3-1.6.3-1.9 1.1-1.1 2.5.8 1.4 1.6 2.8 2.2 4.2.8 2 0 3.7-.8 5.6-1.9 4.6-6.4 5.1-10.2 6.7-.4.2-1.2-.2-1.6-.6-.8-.8-1.6-1.1-2.4-.3-.8.8-1.5 1.6-.6 2.8.8 1.2 1.7 2.3 2.2 3.6.5 1.2.8 2.5.8 3.8-.1.8-.9 1.7-1.6 2.4-.8.8-1.8 1.3-2.8 1.8-.3.2-1.2 0-1.3-.3-.8-1.4-1.3-3-2.2-4.4-.2-.3-1.7-.4-2.1-.1-1.3 1.3-.9 4.7.8 6.2 2.3 2 1.6 4.7 2.2 7.1-.4.1-1 .3-1 .2-1-1.5-1.9-3.1-2.7-4.7-.6-1.2-1.3-2.5-1.6-3.8-.2-1.3.3-2.6.2-3.9-.1-2.1-.4-4.2-.8-6.3 0-.2-1-.3-1.5-.4-.6-.1-1.1-.1-1.6-.3-.1-.1.1-.8 0-1.1-.3-1.3-.7-2.6-1.1-3.9-.1-.4-.5-.7-.6-1-.5-1.9-1.7-2.7-3.6-2.1-.8.2-1.5.7-2.2 1.2-1 .7-2.1 1.4-3.1 2.2-1.2.9-2.5 1.9-3.7 2.8-.3.2-.5.6-.6.9-.4 1.7-.3 3.5-1 5-.6 1.2-2 1.9-3 2.8-.3-.4-.9-.8-1-1.3-1-3.5-1.9-7.1-2.7-10.7-.3-1.1-.1-2.4-.2-3.6 0-.4-.5-1.1-.7-1.1-2.2.2-2.7-1.6-3.2-3-.7-2-3.1-3.5-5.2-3.7-2.2-.3-4.7-.6-6.3-1.8-1.1-.9-2-1.1-3.2-1.5-1.7-.5-3.5-1.5-3.8-3.8-.1-.6-.9-1-1.5-1.4-.1-.1-.9.4-.9.5.2.9.4 1.8.8 2.5.5.8 1.3 1.3 1.9 2 .2.3.3.7.4 1.1.1.4.1 1.3.1 1.3.9 0 2.1.3 2.8-.2 1.2-.8 1.7-.6 2.4.5s1.8 2 2.6 3c.2.3.2.9 0 1.2-1.6 2.8-3.9 4.4-6.9 5.7-3 1.2-6 2.1-9.2 2.8-.6.1-1.7-.4-1.8-.9-.8-2.1-1.2-4.3-1.9-6.4-.3-.8-.8-1.6-1.2-2.3-.2-.3-.5-.6-.6-.9-1.3-3.6-2.4-7.3-3.8-10.8-1-2.5.4-4.3 1.2-6.3.3-.8.6-1.6.5-2.4 0-.3-.9-.6-1.5-.7-.7-.2-1.5-.1-2.2-.3-1.1-.2-2.1-.6-3.2-.8-2.5-.6-2.9-2.2-2.5-4.4.1-.4-.4-1-.8-1.2-.3-.2-.9.1-1.2.3-.2.1-.2.6-.3.9-.2.9-.4 1.9-.7 2.8-.1.3-.6.7-.8.7-.5-.2-1-.5-1.2-.9-.4-.8-.7-1.7-.9-2.5-.3-1-.3-2.1-.7-3-.4-1-1.1-1.9-1.7-2.7-.8-1-1.7-1.8-2.7-2.7-.3-.3-.8-.3-1.3-.4 0 .5-.2 1.2 0 1.5 1.4 1.6 2.8 3 4.2 4.6.2.3.3.7.4 1.1-.3-.1-.6-.2-.9-.2-.2 0-.5-.1-.6 0-.1 0 0 .3-.1.5-.2.6-.4 1.2-.8 1.7s-.8 1-1.4 1.2c-.3.1-.9-.1-1.3-.4-.5-.3-.9-.8-1.3-1.3.6 0 1.2 0 1.8-.1.6-.1 1.1-.4 1.6-.6-.4-.8-.6-1.7-1.1-2.3-1.2-1.5-2.7-2.9-3.8-4.5-.9-1.3-1.7-.1-2.5-.1-.7-.1-1.5.1-2.2-.1-1.1-.3-1.8-.4-2.2 1-.1.5-1.1.8-1.6 1.3l-2.4 2.4c-.7.7-1.3 1.6-2.1 1.8-1.7.6-3.5 1-5-.5-.1-.1-.3-.2-.5-.3-.7-.4-2.2.3-1.8-1.5.2-.9.4-1.7.6-2.6.2-1 .6-1.9.8-2.9.2-1.5 1.1-1.5 2.2-1.3 1.6.3 3.2 1 4.8.9.5 0 1.5-1.7 1.4-2.6-.1-.9-1.2-1.7-1.9-2.6-.3-.4-.5-.7-.8-1.1.3-.1.7-.3 1-.4 1.6-.2 3.2-.2 4.7-.6 1.1-.3 2-1.1 3-1.6 1.5-.7 2.9-1.4 4.4-2.2.2-.1.4-.5.4-.7.2-.6.1-1.3.5-1.7.4-.5 1.2-.8 1.8-1.2 0 .6.1 1.3.1 1.9 0 .5-.2 1.2 0 1.4.3.3 1 .3 1.5.4.4.1.9-.1 1 0 .8 1.3 2 .7 3 .5.6-.1 1.3.1 1.9-.1.8-.3 1.6-.9 2.3-1.4.6-.4 1.2-1 1.8-1.5.3-.3.8-.6.9-.9.1-.4-.2-1-.6-1.2-1.3-.6-1.9-1.7-1.5-3 .2-.7 1.2-1.2 1.8-1.7.1-.1.2-.1.3-.2.4-.4.8-.7 1.2-1.1-.8 0-1.7-.2-2.5.1-1.1.5-2.2 1.1-3.1 1.9-.4.4-.7 1.6-.4 2 1.1 1.4.7 2.1-.8 2.6-.2.1-.6.3-.6.5-.3 2.9-2.6 2.5-4.6 2.8-.2 0-.5-.2-.8-.4.2-.2.3-.4.5-.7.2-.4.7-1.2.6-1.3-.7-.8-.5-2.8-2.5-2.1-.8.3-2.3.4-2.4.2-.4-1.3-.7-2.7-.7-4 0-.3.9-.8 1.4-1 3.3-.8 5.8-3.1 8.6-4.8 1.3-.8 3-1.3 4.6-1.6 1.1 0 2.4 0 4.1-.1z"></path><path d="M125 112.5c-.2-.2-.7-.8-1-1.5-.5-1.3-2.4-2-4.2-1.5-2 .6-4 1.4-6.1.1-.6-.3-1.7-.1-2.4.1-1.5.5-2.2-.3-3.3-1.1-2.6-2-3.5-4.8-4.7-7.6-.6-1.4-1.6-2.7-2.1-4.1-.2-.8.1-2.1.7-2.6 1.5-1.5 1.6-3.1 1.6-5 0-1.2.2-2.6.9-3.6 1.4-2 2.8-4.4 4.8-5.5 2.4-1.4 3.8-3.2 5.3-5.3 1-1.3 2.7-2.1 4.1-3.1.2-.1.6-.1.9 0 1.9 1 3.7.7 5.7.1 1.6-.5 3.4-.2 5-.1 1.4.1 2.7.3 4.1.5.7.1 1.9.1 2 .4.2.8.1 1.8-.2 2.5-.7 1.6-.1 2.8 1.7 3 1.2.1 1.9.6 2.6 1.8.6 1 2.3 1.4 3.5 2.1.1 0 .4-.3.6-.6.3-.6.6-1.6 1-1.7.9-.1 1.9.1 2.8.4 2 .9 3.9 1.9 5.9 2.9h.2c1.4-.6 2.8-.7 3.5.8.6 1.2.6 2.6.9 3.9.6 2.2 1.2 4.5 1.9 6.7.2.6.5 1.2.7 1.9.6 2.4.9 4.8 1.7 7.1.4 1.1 1.7 1.9 2.4 3 .6.9.9 2.1 1.3 3.1.6 1.6 1.9 1.3 3.1 1.2 1.5-.1 3-.4 4.6-.5.2 0 .7.6.6.7-1.1 2.4-2.3 4.7-3.5 7-1.3 2.5-4.1 3.3-6.1 5-2.3 1.8-4.6 3.8-6 6.3-.9 1.7-.7 4.5-.2 6.6.8 3.2-1.2 7.8-4.4 8.7-2.7.8-3.7 2.3-3.7 5.1 0 1.6-.5 3-2.2 3.7-.6.3-1.2.9-1.6 1.5-1.7 3.3-4.3 6-7.6 7.2-2.5.9-5.6.4-8.5.3-.5 0-1.2-1.5-1.4-2.3-.3-1.3 0-2.8-.2-4.1-.1-.7-.8-1.3-.9-1.9-.3-1.7-.9-3.5-.6-5.1.6-2.6-1.1-4.7-1.3-7-.1-1.2-.4-2.5 0-3.5.6-1.6 1.7-2.9 2.5-4.4.3-.5.6-1.1.6-1.6-.6-3.5.3-7.4-2.2-10.5-1.7-2.1-.5-4 .2-5.9.8-2.4.4-3.2-3-3.6z"></path><path d="M90.3 16.5c1.6.3 3.5.5 5.4.9.4.1.7.7 1 1 .6.6 1 1.2 1.7 1.7 1.1.7 2.1 1.2 1.8 2.8-.1.4.6 1 .9 1.6.3.5.8 1.4.6 1.6-.6.6-1.5 1.1-2.3 1.5-.2.1-.7-.5-1-.8-.3-.3-.7-.5-1-.8v1.1c-.1.6 0 1.5-.3 1.7-1 .6-2.3 1.6-3.1 1.3-1.2-.4-2-1.7-3-2.6-.3-.3-.7-.5-1-.6-.8-.2-1.7-.4-2.6-.6-.1 0-.3-.5-.2-.5.5-.3 1.1-.9 1.5-.8 1.3.5 2.4.8 3.6-.3.5-.5 1.2-.8 1.8-1.2-.5-.7-.9-1.5-1.6-2-1.6-1.1-3.3-.6-5.1 1-.7.7-1.8 1.2-2.7 1.3-1.6.1-1.1.8-.9 1.7.1.3.1.6.1.9-.3 0-.7 0-1-.1-.2-.1-.5-.4-.6-.4-1.7.9-3.2-.8-4.6-.5-3 .5-5.9 1.7-8.8 2.9-.2.1.1 2 .5 3 .2.6 1 1.1 1.6 1.5 1 .6 2.1 1.1 3.1 1.8.3.2.4.8.3 1.1-.1.4-.6.7-.8 1.1-.2.5-.2 1.1-.2 1.7 0 .1.5.4.7.4.6-.3 1.4-.5 1.6-1 .6-1.5 1.2-2.6 3-2.8.9-.1 2.6-1.2 2.5-1.6-.2-1.7.7-2.2 1.8-2.8.4-.2.4-1 .7-1.4 2.2-2.1 5.2-1.5 6.7 1.4.1.2-.2.6-.2 1-.1.5-.3 1.2-.1 1.3.3.3 1 .4 1.5.3.6-.1 1.2-.4 1.7-.8 1.2-.8 1.8-.2 2 .9.1.8.1 1.6 0 2.5-.2 1.2-.1 2 1 3 .9.7 1.3 2.1.4 3.5-.6.9-1.4 2 .2 2.8.1.1.1.5 0 .7-.1.4-.4.8-.3 1.1.2 1.8-.7 1.7-2 1.3-1.1-.4-2.3-.8-3.4-1.1-1.2-.3-1-.8-.4-1.4.3-.3.7-.6 1-.9.2-.2.2-.5.3-.8-.3-.1-.5-.2-.8-.3-1.1-.5-2.3-.8-3.4-.8-.4 0-.9.6-1.3 1-.3.3-.6.8-.9 1.2-1 1.1-.8 2 .6 2.6.5.2.8.7 1.2 1-.5.1-.9.3-1.4.4-1.2.3-2.4.6-3.6.8-.3.1-.7 0-1-.2-.7-.3-1.4-1-2-.9-1.1.2-2.2.9-3.2 1.5-.7.4-1.3 1.2-1.9 1.2-3.2.1-5.1 2.3-6.7 4.5-1.2 1.8-2.7 2.6-4.6 3.4-3.1 1.2-5.3 1.9-4.8 6.2.1 1-.7 2.1-1.2 3.2-.1.1-.7.1-.7.1-.3-1.2-.9-2.5-.8-3.8.1-1.2-.1-1.6-1.3-2.2-1-.5-2-1.5-3.1-.9-2.1 1.1-3.8.1-5.7-.4-1.8-.5-5 1.7-5.6 3.4-.7 1.9-1.6 3.7-2.1 5.6-.6 2.3.7 3.6 3.1 4 2.1.4 3-.3 3.6-2.1.3-.9 4-1.1 4.1-.3.1.7-.5 1.7-1 2.4-.4.7-1 1.3-1.4 2-.3.5-.4 1.1-.3 1.6 0 .3.7.5 1.1.6.6.2 1.2.1 1.8.3 1.3.5 2 1.2 1.3 2.9s-2.6 3.5-.4 5.5c.4.4 1 .5 1.6.7.3.1.7.1.8.3.1.2-.1.6-.2.8-.3.4-.8 1.1-.9 1.1-1-.6-1.9-1.3-2.8-2-.3-.2-.5-.6-.7-1-.6-1-1-2.1-1.7-3-.6-.8-1.3-1.7-2-2.3-1.4-1.3-2.8-2.4-4.3-3.6-.5-.4-1.1-1-1.6-.9-2.7.3-4.4-1.5-6.3-2.9-.9-.7-1.8-1.5-2.6-2.4-.4-.5-.9-1.6-.7-2 1.2-1.7.1-3.1-.4-4.6-.4-1.2-1.1-2.3-1.4-3.6-.5-1.8-.7-3.6-1-5.4 0-.2-.3-.4-.5-.6-.2.4-.7.8-.7 1.2.1 2 .3 4.1.6 6.1.1.7.4 1.3.5 1.9.1.3-.2.7-.3 1-.3-.1-.7-.2-.8-.4-.5-1.1-.9-2.3-1.3-3.4-.1-.3-.4-.5-.6-.8-.6-.7-1.3-1.4.1-2.1.1-.1.2-.5.2-.7-.1-1.6-.2-3.2-.4-4.8-.1-.7-.3-1.7-.8-1.9-1.4-.6-1.3-1.7-1.2-2.8.2-1.4-.1-3 .4-4.2.8-1.7 2.3-3.2 3.5-4.7 1.2-1.5 2.6-2.9 3.9-4.4.2-.3.3-.9.2-1.2-.7-1.2-.3-2.1.3-3.3 1.2-2.7 2.5-5.7.6-8.7-.3-.5-.7-1-1.2-1.2-1.2-.7-2.5-1.3-3.8-1.7-.6-.2-1.3.2-2 .3-1.2.2-2.5.5-3.8.6-2.6.3-5.2.6-7.7 1-1.7.3-3.2.9-4.9 1.3-.5.1-1-.2-1.5-.3.4-.2.7-.6 1.1-.7 1.1-.4 2.2-.6 3.3-1 .3 0 .5-.3.6-.5 0 0-.2-.3-.3-.4-.4-.7-1.3-1.5-1.1-2 .2-.7 1.1-1.5 1.9-1.8 1.7-.6 3.4-.8 5.1-1.2.2-.1.4-.3.6-.5-.2-.1-.4-.2-.7-.3-.3-.1-.6-.2-.9-.4.4-.5.7-1.3 1.1-1.4 1.2-.3 2.5-.2 3.8-.3.3 0 .7-.2.8-.5.4-1.7 1.8-1.4 3-1.5 2.5-.2 4.9-.8 7.3-.6 2.6.1 5.1.8 7.6 1.5 2.6.7 5.1 2 7.8 2.5 2.6.5 5.4 0 8.1.3 1.7.2 3.5.6 4.9 1.4 3 1.7 5.9 3.1 9.4 2.6.6-.1 1.2.5 1.9.7 1.4.4 2.8.7 4.2.9.9.2 1.8.3 2.7.2.5-.1 1.3-.5 1.4-.9.3-1.2 2.6-2.6 3.7-2 .3.1.3.7.4 1 .4.7.8 1.3 1.3 1.9.1.1 1.1-.3 1.2-.6.7-2.5 2.1-3.4 4.8-3 .2 0 .4 0 1 .1z"></path><path d="M91 111.7c.5.3 1.1.5 1.6.9 1.2 1 2.4 2 3.6 3.1 1 .9.7 3.9-.7 5.5-1 1.2-2.2 2.1-3.1 3.4-.7.9-1 2.1-1.4 3.1-.8 2.2-1.6 4.3-2.2 6.5-.9 3.4-3.9 2.5-6.1 3.1-2.4.7-2.9 1.3-3.1 3.8-.1 1.3-1.2 2.5-2 3.7-.8 1.2-1.7 2.3-2.7 3.4-1 1.1-2.4 2-3.1 3.2-.9 1.7-1.9 2.5-3.7 3-.9.2-1.6 1.6-2.2 2.6-.9 1.4-1.7 2.9-2.3 4.4-.2.4.4 1.2.5 1.8.1.5.4 1.2.2 1.7-.4 1-1.9 2.3-1.6 2.9.8 1.8 1.4 4 3.7 4.8.4.1.6.6.9.9-.4.1-.9.4-1.2.3-1.3-.6-3.1-.3-3.6-2.2-.1-.4-.9-.9-1.3-.8-1.9.3-2.7-1-3.1-2.3-.9-3.5-1.5-7.2-2.2-10.8-.5-2.5-1.2-5-1.6-7.5-.1-.7.2-1.4.3-2.2l.6-6.9c.4-3.8.7-7.7 1.3-11.4.6-3.2-.7-5.3-3.3-6.8-2-1.1-2.5-3-3.3-4.9-1.2-2.9-2.6-5.6-3.7-8.5-.3-.9.3-2.1.5-3.1.1-.4.6-.8.5-1.1-1-3.2 1.3-4.7 3.3-6.3 1.6-1.2 2.4-3.6 1.8-5.4-.2-.6-.5-1.2-.6-1.8-.1-.2 0-.7.2-.8.2-.2.6-.2.9-.1 1.3.5 2.1.1 2.8-1.1.7-1.4 5.8-1.9 7.1-.9 1.4 1 2.8 2 4.4 2.6 1 .4 2.3 0 3.4 0s2.1.1 1.3 1.7c-.2.3 0 .9.2 1.3.6.9 1.2 2 2.1 2.6 1.4.9 3.1 1.3 4.4 2.3.9.6 1.8 1.7 2.2 2.7.5 1.2.5 2.6.9 3.8.2.6.9 1.2 1.4 1.6 1.8 1.3 3.7 2.5 5.6 3.8 1 .3 2.4.5 2.4.4z"></path><path d="M277.4 161.3c.3.7.7 1.4 1 2.1.4.8.8 1.7 1.2 2.5.6 1.4 1 2.9 1.8 4.3 1.2 2.1-.3 3.5-1.1 5-1.4 2.5-3.3 4.5-5.9 5.9-1.3.7-2.3 1.9-3.3 3-2.7 3-8.3 2.4-11.2.3-.3-.2-.2-.8-.3-1.2-.3-.8-.4-1.8-1-2.4-.8-.8-1.7-1.3-1.6-2.9.2-1.8-2.3-2.9-4.7-2.6l-11.4 1.5c-.6.1-1.2.5-1.7.4-.9-.2-1.8-.7-2.6-1.1.3-.5.6-1 .8-1.6.4-.8 1-1.6 1.1-2.5.2-1.9 0-3.9.3-5.8.2-1.1.9-2.1 1.4-3.2 1.5-3.5 5-3.1 7.9-4 1.3-.4 2.4-1.4 3.6-2.1 2.2-1.3 4.5-2.5 6.8-3.8.1 0 .3.1.4.1 1.1 1.7 2 .8 3-.2.7-.7 1.6-1.3 2.5-1.9.2-.1.5-.2.6-.2 1.5.5 3 1 4.4 1.8.2.1-.2 1.5-.5 2.2-.8 1.6.9 4.6 2.7 4.7.3 0 .6-.4.8-.7 1-1.9 2-3.8 3.1-5.7.1-.2 1.1-.1 1.1 0 .6 2.6 1.1 5.2 1.7 7.8-.4.1-.7.2-.9.3z"></path><path d="M116.9 15.5c4.5.4 9 .6 13.5 1.1 3.2.4 6.5 1 9.6 1.7 2.1.4 4.1 1.2 6.1 1.8.2.1.4.3.6.5-.2.1-.4.3-.6.3-1.1.2-2.2.4-3.3.4-2 0-2.2 2-3.3 3-1 .9-2.2 1.6-3.3 2.4-.4.3-.9.8-1 1.2-.1 1.3-.6 1.9-2 2.1-3.4.5-6.7 1.2-10.1 1.7-1.5.2-3 .2-4.5.4-.8.1-1.6.5-2.2.9-1.5 1.1-2.9 2.4-4.4 3.6-.2.2-.5.3-.8.3-1.3-.1-4.1-3.1-4.1-4.4 0-1.2-.1-2.6.4-3.6.4-.8 1.6-1.3 2.4-1.9.3-.2.6-.6.6-1 .1-1-.2-2.1.1-3.1.3-1.5.3-2.6-1.3-3.1-1.2-.3-2.4-.5-3.6-.7-.6-.1-1.3-.3-1.7-.7-.4-.4-.6-1.1-.6-1.6 0-.1.8-.5 1.2-.5.6-.1 1.2.1 1.8 0 2.8-.3 5.7-.6 8.5-.9.6-.1 1.2 0 1.8-.1.2.1.2.2.2.2z"></path><path d="M283.1 149.3c.4.6.8 1.3 1.2 1.9.2.4.5.7.7 1.1.2.4.2.9.3 1.4-.5-.1-.9-.4-1.4-.4-2.4 0-2.5-2.5-3.9-3.6-.3-.3-1.5-.1-1.8.2-1.2 1.3-2.1.9-3.3 0-.6-.4-1.5-.5-2.2-.9-.3-.2-.7-.8-.6-1 1-2.1.6-3.3-1.5-4.2-.9-.4-2-.4-2.8-1-.5-.4-.5-1.4-.8-2.1-.2-.5-.4-1.1-.6-1.6-.1-.3-.4-.5-.5-.8.3-.1.5-.2.8-.2 1 .2 2 .4 3 .7.1 0 .2.2.2.3 0 2.9 1.7 1.4 2.9 1.1.4-.1.9-.2 1.3 0 3 1.8 6.6 2.8 8.3 6.4.4.7 1 1.4 1.5 2-.3.3-.6.5-.8.7z"></path><path d="M248.7 139.7c-2-.8-3.7-1.2-4.9-2.2-.8-.7-.8-2.3-1-3.5-.5-2.6 1.4-3 3.2-3.9 2.1-1 4-2.5 6-3.7.3-.2.9-.1 1.1.1 1.3 1.2 2.5 2.3.3 3.9-.4.3.1 1.9.2 2.9 0 .2 0 .6-.1.7-1.3 1.3-2.9 2.3-3.3 4.3-.1.8-1.2 1.1-1.5 1.4z"></path><path d="M238.9 136.8c-.6 3 1.5 4.8 3.7 4.9 1.5 0 2.9 1 4.3 1.6.1 0 .1.2.2.3.3.5.6.9 1 1.4-.7 0-1.4.1-2-.1-2.2-.7-4.5-1.3-6.5-2.3-1.3-.7-2.5-1.9-3.2-3.2-1.6-2.7-2.9-5.5-4.4-8.3-1-1.9-2-3.7-3-5.5-.2-.3-.1-.8-.2-1.2.3 0 .7-.1 1 0 2.4.5 2.8 2.9 4.3 4.4 1.1 1.1 2.3 2.3 3.1 3.6.8 1.5 1.3 3.3 1.7 4.4z"></path><path d="M165.8 149.9c1-2.6 1.9-4.9 2.8-7.3.1-.2.4-.5.6-.5 2.6 0 3.8-1.9 5.2-3.6.2-.2.5-.4.7-.6.2.3.3.6.5.9 1.1 2.7-.6 4.8-1.7 6.9-1.2 2.5-2.5 4.9-4 7.1-.4.6-1.7 1-2.5.9-.6-.1-1.2-1.2-1.5-1.9-.3-.6-.1-1.4-.1-1.9z"></path><path d="M265 95.7c.2-1.8 2.1-3.3 3.5-3.3 2.7.1 5.2-3 4.2-5.6-.7-1.7-1.4-3.4-1-5.3.1-.2.1-.6.3-.7.2-.1.5 0 .7.1 1.2.6 2.4 1.2 3.5 1.9.4.3.7 1 .8 1.5 0 .2-.5.7-.9.9-1.4.6-1.7 1.2-1.1 2.7.6 1.4.5 3.1.7 4.7.2 1.5-.7 1.9-2.1 2.2-1.7.3-3.4.9-5.1 1.4-.3.1-.5.4-.7.6-.4.4-.8.8-1.3 1.2-.5-.8-1.1-1.7-1.5-2.3z"></path><path d="M294.9 187.4c0-.3 0-.6.1-.8.2-.5.4-1 .7-1.4.3.5.9 1 .9 1.5.1 1.2-.1 2.4 1.5 2.7 0 0 0 .9-.2 1l-7.5 3.3c-1.5.7-3 1.6-4.5 2.2-1.8.7-3.7 1.4-5.6 1.9-.8.2-1.7-.2-2.5-.3.1-.4.1-1 .3-1.1 1.6-.6 3.3-1.1 4.9-1.8 1.8-.7 3.5-1.4 5.3-2.2.5-.2 1-.5 1.5-.5 2.2-.1 4.8-2.5 5.1-4.5z"></path><path d="M134.2 42.6c.5.8 1.2 1.5 1.2 2.1-.1 2.2.8 4 2 5.7.2.2-.7 1.8-1.3 2-1.6.4-3.2.4-4.9.5-.2 0-.5-.3-.5-.3.6-1.2 1.2-2.3 1.8-3.4.1-.2.6-.3.9-.4-.2-.4-.4-.9-.7-1.2-1.6-1.3-1.8-3-.3-4.2.4-.4.9-.5 1.8-.8z"></path><path d="M253.2 141.6c-.2-.8-.5-1.6-.5-2.4 0-.6.4-1.3.7-1.9.7-1.2 1.3-2.4 2.3-3.3.4-.4 1.6.3 2.5.3.5 0 1.1-.2 1.6-.3.2 0 .4-.1.7-.2 0 .3.1.6 0 .8-.9 1-2 1.9-2.8 2.9-.4.5-.6 1.1-.7 1.8-.1.4.1.9.1 1.4 0 1.1.7 2.8-1.5 1.3-.3-.2-1.1.1-1.7.2-.3 0-.5.2-.8.1-.2 0-.2-.4-.3-.6.1 0 .2-.1.4-.1z"></path><path d="M123.3 35.1c1.7-.3 3.5-.7 5.2-.9.6-.1 1.3.6 2 .9-.4.5-.8 1.1-1.3 1.4-1.7.8-3.4 2.1-5.4 1.4-.8-.3-1.4-1.2-2.1-1.9.5-.4.9-.9 1.4-1.3 0 .2.1.3.2.4z"></path><path d="M255.7 114.5c.7-.7 1.4-2 2.2-2.1 1.6-.2 2 1.7.9 3.1-.6.9-1.4 1.9.6 2.3.5.1 1.1.4 1.4.8.2.3.2.9.2 1.3 0 .1-.6.3-.7.2-1.4-1-2.8-2-4-3.2-.5-.3-.4-1.2-.6-2.4z"></path><path d="M54.8 70.9c1.3.8 2.5 1.4 3.6 2.2 1 .7 1.9 1.7 2.7 2.5.3.3.4.7.6 1-.5 0-1 .2-1.5.1-1.7-.1-2.4-1.7-3.4-2.7-1.4-1.4-3-1.9-4.9-1.5-.3.1-.6-.1-.9-.1.2-.3.4-.7.6-.7 1-.3 2.1-.5 3.2-.8z"></path><path d="M130.3 46.1c.4.4 1 .6 1.2 1 .1.3-.5.7-.6 1.2-.2 2-2 1.7-3.2 2.2-.3.1-.9-.1-1.1-.3-.2-.3-.1-.8 0-1.2.3-1.3 1-2.2 2.3-2.5.5-.1.9-.2 1.4-.4z"></path><path d="M63.8 79.6c-.4-.1-.9-.3-1.3-.4-.5-.2-1-.5-1.5-.8.5-.1 1-.2 1.4-.3.1 0 .3-.3.3-.5 0-.3-.1-.5-.2-.8.3 0 .7 0 .9.1 1.2.5 2.4 1 3.6 1.6.2.1.3.4.4.7-.2.1-.5.3-.7.3-1 .1-2 .1-2.9.1z"></path></g></g></g><path opacity=".5" fill="#381038" d="M174.3 61.1c-3.7-9.4-9-17.9-15.5-25.4.2.4.3.8.5 1.2 3.9 9.9 6 20.6 6 31.8 0 47.9-38.9 86.8-86.8 86.8-26 0-49.3-11.4-65.2-29.6 13 31.5 44 53.7 80.3 53.7 47.9 0 86.8-38.9 86.8-86.8-.1-11.1-2.2-21.9-6.1-31.7z"></path><g class="p-globe_illustration__paths"><g><g fill="none" stroke="#C05B8C" stroke-width=".32" stroke-linecap="round" stroke-linejoin="round"><path d="M134.2 123.7c0-.1 0-.2-.1-.3"></path><path stroke-dasharray="0.6433,1.2866" d="M133.8 122.1c-14.8-57.2-85.1-73.7-94-75.6"></path><path d="M39.2 46.4c-.2 0-.3-.1-.3-.1s.1-.1.2-.3"></path><path stroke-dasharray="0.6377,1.2755" d="M39.9 45.1c5.1-6.3 30.5-33.1 70.2-10"></path><path d="M110.7 35.5c.1.1.2.1.3.2 0 0-.1 0-.3-.1"></path><path stroke-dasharray="0.6462,1.2925" d="M109.3 35.4c-8.9-1.1-53.2-4.6-73.3 34.7"></path><path d="M35.7 70.7c0 .1-.1.2-.1.3h-.3"></path><path stroke-dasharray="0.6448,1.2895" d="M34 70.8C28.3 69.9 9 66 8.9 55.2c-.1-5.2 5.5-7.6 9.8-8.6"></path><path d="M19.3 46.4c.1 0 .2 0 .3-.1"></path></g></g><g><g fill="none" stroke="#C05B8C" stroke-width=".32" stroke-linecap="round" stroke-linejoin="round"><path d="M70 133.9c0-.1-.1-.2-.1-.3"></path><path stroke-dasharray="0.642,1.2841" d="M69.5 132.4C41.8 54.7 101.7 37.8 110 35.8"></path><path d="M110.6 35.7c.2 0 .3-.1.3-.1"></path></g></g><path fill="none" stroke="#C05B8C" stroke-width=".32" stroke-linecap="round" stroke-linejoin="round" stroke-miterlimit="10" stroke-dasharray="0.6403,1.2807" d="M134.2 123.7C106.9 168.5 67 133 70 133.9c-34.8 22.8-59.2 8.9-60.6 2.8s1.8-10.7 1.8-10.7"></path><path fill="none" stroke="#C05B8C" stroke-width=".32" stroke-linecap="round" stroke-linejoin="round" stroke-miterlimit="10" stroke-dasharray="0.6403,1.2807" d="M104.9 93c-42.4 26.5-69.4-22-69.4-22S15.7 116.7 70 133.9"></path><path fill="none" stroke="#C05B8C" stroke-width=".32" stroke-linecap="round" stroke-linejoin="round" stroke-miterlimit="10" stroke-dasharray="0.6403,1.2807" d="M158 33.2c4.5.7 11.9 3 11 10.3-1.2 10.6-19 14.9-19 14.9-6.2-32.8-39.1-22.8-39.1-22.8s37.7 25.9 23.3 88.1c0 0 50.3-2.5 52.8-24.5.8-6.5-2.9-9.9-6.5-11.6"></path><path fill="none" stroke="#C05B8C" stroke-width=".32" stroke-linecap="round" stroke-linejoin="round" stroke-miterlimit="10" stroke-dasharray="0.6403,1.2807" d="M70 133.9c42.8-4.6 34-41.6 34.9-41 53.7-64 35.4-80.9 30.3-81.4-3.9-.4-6.6 2-6.6 2"></path><path fill="none" stroke="#C05B8C" stroke-width=".32" stroke-linecap="round" stroke-linejoin="round" stroke-miterlimit="10" stroke-dasharray="0.6403,1.2807" d="M110.9 35.6S96.5 6.1 70 6.1C56.8 6.1 51.5 12 49.5 18"></path><path fill="none" stroke="#C05B8C" stroke-width=".32" stroke-linecap="round" stroke-linejoin="round" stroke-miterlimit="10" stroke-dasharray="0.6403,1.2807" d="M104.9 93s1.2 30.2 29.3 30.7"></path></g><g class="p-globe_illustration__dots"><g><path fill="none" stroke="#C05B8C" stroke-width=".39" stroke-miterlimit="10" d="M38.9 49.2c-1.6 0-2.8-1.2-2.8-2.7 0-.8.2-1.6.8-2.1.5-.5 1.2-.9 2-.9 0 0 0 0 0 0 .8 0 1.6.3 2.1.8s.8 1.3.8 2c0 1.5-1.2 2.7-2.7 2.8-.1.1-.1.1-.2.1z"></path><path fill="#C05B8C" d="M37.6 46.4c0-.8.5-1.3 1.3-1.4.8 0 1.4.6 1.3 1.3 0 .7-.5 1.2-1.2 1.3-.8.1-1.4-.4-1.4-1.2z"></path></g><g><path fill="none" stroke="#C05B8C" stroke-width=".39" stroke-miterlimit="10" d="M35.6 73.9c-1.6 0-2.8-1.2-2.8-2.7 0-.8.2-1.6.8-2.1.5-.5 1.2-.9 2-.9 0 0 0 0 0 0 .8 0 1.6.3 2.1.8s.8 1.3.8 2c0 1.5-1.2 2.7-2.7 2.8-.1.1-.2.1-.2.1z"></path><path fill="#C05B8C" d="M34.3 71.1c0-.8.5-1.3 1.3-1.4.8 0 1.4.6 1.3 1.3 0 .7-.5 1.2-1.2 1.3-.8.1-1.4-.5-1.4-1.2z"></path></g><g><path fill="none" stroke="#C05B8C" stroke-width=".39" stroke-miterlimit="10" d="M70 136.7c-1.6 0-2.8-1.2-2.8-2.7 0-.8.2-1.6.8-2.1.5-.5 1.2-.9 2-.9 0 0 0 0 0 0 .8 0 1.6.3 2.1.8s.8 1.3.8 2c0 1.5-1.2 2.7-2.7 2.8-.1.1-.1.1-.2.1z"></path><path fill="#C05B8C" d="M68.7 133.9c0-.8.5-1.3 1.3-1.4.8 0 1.4.6 1.3 1.3 0 .7-.5 1.2-1.2 1.3-.8.1-1.4-.4-1.4-1.2z"></path></g><g><path fill="none" stroke="#C05B8C" stroke-width=".39" stroke-miterlimit="10" d="M134.2 126.6c-1.6 0-2.8-1.2-2.8-2.7 0-.8.2-1.6.8-2.1.5-.5 1.2-.9 2-.9 0 0 0 0 0 0 .8 0 1.6.3 2.1.8s.8 1.3.8 2c0 1.5-1.2 2.7-2.7 2.8-.1.1-.1.1-.2.1z"></path><path fill="#C05B8C" d="M132.9 123.8c0-.8.5-1.3 1.3-1.4.8 0 1.4.6 1.3 1.3 0 .7-.5 1.2-1.2 1.3-.8.1-1.3-.5-1.4-1.2z"></path></g><g><path fill="none" stroke="#C05B8C" stroke-width=".39" stroke-miterlimit="10" d="M110.9 38.5c-1.6 0-2.8-1.2-2.8-2.7 0-.8.2-1.6.8-2.1.5-.5 1.2-.9 2-.9 0 0 0 0 0 0 .8 0 1.6.3 2.1.8s.8 1.3.8 2c0 1.5-1.2 2.7-2.7 2.8-.1.1-.1.1-.2.1z"></path><path fill="#C05B8C" d="M109.6 35.7c0-.8.5-1.3 1.3-1.4.8 0 1.4.6 1.3 1.3 0 .7-.5 1.2-1.2 1.3-.8.1-1.3-.5-1.4-1.2z"></path></g><g><path fill="none" stroke="#C05B8C" stroke-width=".39" stroke-miterlimit="10" d="M149.7 61.3c-1.6 0-2.8-1.2-2.8-2.7 0-.8.2-1.6.8-2.1.5-.5 1.2-.9 2-.9 0 0 0 0 0 0 .8 0 1.6.3 2.1.8s.8 1.3.8 2c0 1.5-1.2 2.7-2.7 2.8-.1.1-.1.1-.2.1z"></path><path fill="#C05B8C" d="M148.4 58.5c0-.8.5-1.3 1.3-1.4.8 0 1.4.6 1.3 1.3 0 .7-.5 1.2-1.2 1.3-.8.1-1.4-.5-1.4-1.2z"></path></g><g><path fill="none" stroke="#C05B8C" stroke-width=".39" stroke-miterlimit="10" d="M104.9 95.8c-1.6 0-2.8-1.2-2.8-2.7 0-.8.2-1.6.8-2.1.5-.5 1.2-.9 2-.9 0 0 0 0 0 0 .8 0 1.6.3 2.1.8s.8 1.3.8 2c0 1.5-1.2 2.7-2.7 2.8-.1.1-.1.1-.2.1z"></path><path fill="#C05B8C" d="M103.6 93c0-.8.5-1.3 1.3-1.4.8 0 1.4.6 1.3 1.3 0 .7-.5 1.2-1.2 1.3-.8.1-1.4-.4-1.4-1.2z"></path></g></g><g class="p-globe_illustration__avatars"><g class="p-globe_illustration__avatars__right-bottom"><path fill="#C05B8C" d="M157.3 142.3H143c-1.6 0-2.9-1.3-2.9-2.9v-14.3c0-1.6 1.3-2.9 2.9-2.9h14.3c1.6 0 2.9 1.3 2.9 2.9v14.3c0 1.6-1.3 2.9-2.9 2.9z"></path><path fill="#FAA11B" d="M143 142.3h14.3c1.6 0 2.9-1.3 2.9-2.9v-.8c-.5-1-1.3-1.9-2.4-2.4-.6-.3-1.2-.5-1.8-.6l-5.9-.9-5.9.9c-.6.1-1.2.3-1.8.6-1.1.6-1.9 1.5-2.4 2.6v.6c.1 1.6 1.4 2.9 3 2.9z"></path><path fill="#FFFFFF" d="M153.2 135.3v-.2l-2.9-.5-2.9.5v.2c0 1.6 1.3 2.9 2.9 2.9s2.9-1.3 2.9-2.9z"></path><path fill="#CE9D77" d="M150.2 137.7c-1.4 0-2.5-1.1-2.5-2.5v-1.6h5v1.6c0 1.4-1.2 2.5-2.5 2.5z"></path><path d="M150.1 135.5c.9 0 2.3-1.2 2.3-1.2-.7.4-1.5.7-2.3.7s-1.6-.2-2.3-.7c0 0 1.5 1.2 2.3 1.2z"></path><path fill="#FFFFFF" d="M146.7 125.2h7v1.7h-7z"></path><path fill="#293A8A" d="M153.6 122.1h-6.7c-1.2.9-2 2.3-2 3.9 0 .9.3 1.8.8 2.6 0 0 0 .1.1.1l.1-.1h1.1v-.7l3.2-2.1 3.2 2.1v.7h1.2l.3.2c.6-.8.9-1.7.9-2.7-.2-1.7-1-3-2.2-4z"></path><path fill="#CE9D77" d="M152 127h-3.7l-2 1.3v2.5c0 2.1 1.7 3.8 3.8 3.8 2.1 0 3.8-1.7 3.8-3.8v-2.6L152 127z"></path><path fill="#CE9D77" d="M146.4 130.3v-2h-.5c-.3 0-.6.3-.6.6v.4c0 .5.5 1 1.1 1z"></path><path fill="#CE9D77" d="M153.9 130.3v-2h.5c.3 0 .6.3.6.6v.4c-.1.5-.5 1-1.1 1z"></path><path d="M150.2 130.5h-.5c-.1 0-.1 0-.1-.1s0-.1.1-.1h.5c.1 0 .1 0 .1-.1v-.1l-.3-1.8c0-.1 0-.1.1-.1 0 0 .1 0 .1.1l.3 1.8c0 .1 0 .2-.1.3 0 0-.1.1-.2.1z"></path><path d="M154.1 129.9c.1-.4.1-.8-.1-1.1l-.1-.1v-.4l-.6-.4v.9c0 .1 0 .2.1.2l.2.2c.1.1.1.2.1.3l-.1.4c0 .1-.1.2-.2.3l-.5.4c-.1.1-.2.3-.2.4l-.1.6c0 .1-.1.3-.3.3-.2 0-.3-.1-.4-.2l-.4-.4c-.1-.1-.2-.2-.4-.2h-1.8c-.1 0-.3.1-.4.2l-.4.4c-.1.1-.3.2-.4.2-.1 0-.3-.1-.3-.3l-.1-.6c0-.2-.1-.3-.2-.4l-.5-.4c-.1-.1-.2-.2-.2-.3l-.1-.3c0-.1 0-.2.1-.3l.2-.3c.1-.1.1-.2.1-.2v-.9l-.6.4v.2l-.1.3c-.2.3-.2.7-.1 1.1l.2.5c.1.2.1.4.1.5l-.1.7c-.1.5.1.9.4 1.3l.2.2c.1.1.1.2.1.3 0 .3.2.6.5.8l2.1.8c.4.2.9.2 1.3 0l2-.8c.3-.1.5-.4.5-.8 0-.1 0-.3.1-.4l.2-.2c.3-.4.4-.8.4-1.3l-.1-.7c0-.2 0-.4.1-.5l-.2-.4zm-4 3.8c-.9 0-1.7-.4-1.7-.9s.8-.9 1.7-.9c.9 0 1.7.4 1.7.9s-.8.9-1.7.9z"></path><path d="M150.2 132.9c-.6 0-.9-.3-.9-.3v-.1h.1s.3.3.8.3.8-.3.8-.3h.1v.1s-.3.3-.9.3z"></path></g><g class="p-globe_illustration__avatars__right-center"><circle fill="#F1606A" cx="158.1" cy="75.6" r="10.9"></circle><path fill="#293A8A" d="M157.7 73.2h6.5v-.7c0-.4-.3-.7-.7-.7H159c-.7 0-1.3.6-1.3 1.3v.1z"></path><path fill="#DFB28B" d="M157.5 64.7l-.4 3.7c-.1.5.1 1.1.3 1.5l.4.7c.2.3.4.4.7.4h.1c.2 0 .3.2.3.3v.6h4.4v-6.6l-5.8-.6z"></path><path fill="#DFB28B" d="M157.3 66.4l-.7 1.3v.3l.5.4.2-2z"></path><path d="M158.6 71h1.2l-.9.3c.1-.2-.1-.3-.3-.3z" opacity=".2"></path><path d="M157.3 63.7c0-.9.7-1.6 1.6-1.6h.2c.3-.5.8-.9 1.4-.9.6 0 1.1.3 1.4.8.2-.1.4-.2.6-.2.6 0 1.1.4 1.3.9h.1c.7 0 1.3.5 1.3 1.2.5.2.8.7.8 1.3 0 .2 0 .4-.1.6.3.2.4.6.4 1s-.2.8-.6 1.1v.2c0 .5-.4 1-1 1h-.2l-.7 1.2c-.1.2-.4.4-.6.4h-1.6c-.8 0-1.5-.7-1.5-1.5v-2.3c0-.3-.3-.6-.6-.6s-.5.2-.6.4l-.3.8c-.1.2-.2.3-.4.3s-.4-.1-.4-.3l-.5-2.8c.2-.1 0-.7 0-1z"></path><path fill="#293A8A" d="M158.1 86.5c-1.3 0-2.5-.2-3.7-.6l-.6-2.8c0-.1-.1-.2-.2-.1l-3.2 1.7c-.3.2-.7.3-1 .3-1 0-1.9-.7-2.1-1.7l-1.5-8.1h3.3l1 3.7 3.7-4c1-1.1 2.5-1.7 4-1.7h6.5l1.9.8c1.4.6 2.4 1.7 2.8 3.1-.8 5.3-5.4 9.4-10.9 9.4z"></path><path fill="#DFB28B" d="M144.4 68.6c0-.1.1-.3.3-.3.1 0 .2.1.2.2l.7 1.9h.1l-.6-2.6v-.1c0-.2.1-.3.3-.3.1 0 .2.1.3.2l.6 2.5h.1l-.4-2.7c0-.2.1-.3.3-.3.2 0 .3.1.3.3l.5 2.8h.1l-.1-2.3c0-.1.1-.3.3-.3.1 0 .3.1.3.3l.4 3.4.8-.8c.1-.1.3-.2.5-.2h.3l-.9 2-.5 1 .3 2h-2.5l-.2-1.7-.5-1.4-.3-1.3-.7-2.1v-.2z"></path></g><g class="p-globe_illustration__avatars__center-center"><path fill="#FAA11B" d="M82.4 88.8h14.8c1.3 0 2.4-1.1 2.4-2.4V71.2c0-1.3-1.1-2.4-2.4-2.4H82.4c-1.3 0-2.4 1.1-2.4 2.4v15.3c0 1.3 1 2.3 2.4 2.3z"></path><path d="M82.7 74.8c0 .2-.3.4-.3.7 0 .2.3.4.3.6 0 .2-.2.5-.2.7 0 .2.4.4.4.6.1.2-.1.5-.1.7.1.2.4.3.5.5.1.2 0 .5.1.7.1.2.5.2.6.3.1.2.1.5.3.6.2.1.5 0 .7.2.2.1.2.4.4.5.2.1.5-.1.7 0 .2.1.3.4.5.5.2.1.5-.2.7-.1.2 0 .4.3.6.4.2 0 .4-.2.7-.2.2 0 .4.3.6.3.2 0 .4-.3.7-.3.2 0 .4.3.6.3.2 0 .4-.3.6-.3.2 0 .5.2.7.2.2 0 .4-.3.6-.4.2 0 .5.2.7.1.2-.1.3-.4.5-.5.2-.1.5.1.7 0 .2-.1.2-.4.4-.6.2-.1.5 0 .7-.2.2-.1.1-.5.3-.6.1-.2.5-.1.6-.3.1-.2 0-.5.1-.7.1-.2.4-.3.5-.5.1-.2-.1-.5 0-.7.1-.2.4-.3.4-.5s-.2-.5-.2-.7c0-.2.3-.4.3-.6 0-.2-.3-.4-.3-.6 0-.2.3-.5.2-.7 0-.2-.3-.4-.4-.6 0-.2.2-.5.1-.7-.1-.2-.4-.4-.5-.6-.1-.2.1-.5 0-.7-.1-.2-.4-.3-.5-.5-.1-.2 0-.5-.1-.7-.1-.2-.5-.2-.6-.4-.1-.2-.1-.5-.2-.7.2-.3-.1-.3-.3-.4-.2-.2-.2-.5-.3-.6-.2-.1-.5-.1-.7-.2-.2-.1-.2-.5-.4-.6-.2-.1-.5 0-.7-.1-.2-.1-.3-.4-.5-.5-.2-.1-.5.1-.7.1-.2 0-.4-.3-.6-.4-.2 0-.5.2-.7.2-.2 0-.5-.3-.7-.2-.2 0-.4.3-.6.4-.2 0-.5-.2-.7-.1-.2.1-.3.4-.5.5-.2.1-.5-.1-.7.1-.2.1-.2.5-.4.6-.2.1-.5 0-.7.2-.2.1-.2.5-.3.6-.2.2-.5.1-.7.3-.1.2-.1.5-.2.7-.1.2-.5.2-.6.4-.1.2 0 .5-.1.7-.1.2-.4.3-.5.5-.1.2.1.5 0 .7-.1.2-.4.3-.5.6-.1.2.2.5.1.7 0 .2-.3.4-.4.6-.3.2 0 .4 0 .7z"></path><path fill="#FAA11B" d="M92.9 76.8c-.5 0-1-.4-1-1s.4-1 1-1c.5 0 1 .4 1 1s-.5 1-1 1zm0-1.8c-.4 0-.8.4-.8.8s.4.8.8.8.8-.4.8-.8-.4-.8-.8-.8z"></path><path fill="#FAA11B" d="M86.8 76.8c-.5 0-1-.4-1-1s.4-1 1-1c.5 0 1 .4 1 1s-.4 1-1 1zm0-1.8c-.4 0-.8.4-.8.8s.4.8.8.8.8-.4.8-.8-.3-.8-.8-.8z"></path><path fill="#723C19" d="M92.9 73.9h-.2l.1-.7c0-1.6-1.3-2.8-2.8-2.8-1.6 0-2.8 1.3-2.8 2.8l.1.7h-.2c-.2 0-.4.2-.4.4v.3c0 .4.3.8.8.8.1.6.2 1.3.5 1.9.2.4.4.7.8.9V80l-1.8.8 3.5 1.7 2.3-2.2-1.5-.3V78.1c.3-.2.6-.5.8-.9.3-.6.4-1.2.5-1.9.4 0 .8-.3.8-.8v-.3c-.1-.1-.3-.3-.5-.3z"></path><path d="M89.9 78.6c-.5 0-1-.2-1.4-.5.4.3.9.9 1.4.9s1-.6 1.4-.9c-.4.3-.9.5-1.4.5z" opacity=".3"></path><path fill="#F1606A" d="M89.9 71.4c-1.4 0-2.6 1-2.8 2.4v-.5c0-1.6 1.3-2.8 2.8-2.8 1.6 0 2.8 1.3 2.8 2.8v.5c-.3-1.4-1.4-2.4-2.8-2.4z"></path><path d="M90.1 75.1h-.4c-.1 0-.2 0-.2-.1s-.1-.1-.1-.2l.3-1.3s0-.1.1 0c0 0 .1 0 0 .1l-.3 1.3v.1h.5c.2 0 .2 0 .1.1.1 0 .1 0 0 0z" opacity=".3"></path><path d="M89.8 76.4c-.5 0-.7-.2-.7-.3V76h.1s.2.2.6.2.6-.2.6-.2h.1v.1s-.2.3-.7.3z" opacity=".3"></path><path fill="none" d="M82.4 88.8h14.8c1.3 0 2.4-1.1 2.4-2.4V71.2c0-1.3-1.1-2.4-2.4-2.4H82.4c-1.3 0-2.4 1.1-2.4 2.4v15.3c0 1.3 1 2.3 2.4 2.3z"></path><path fill="#723C19" d="M102.7 66.1c0-.1-.1-.2-.2-.2s-.2 0-.2.1l-.8 1.4h-.1l.7-2c0-.1-.1-.2-.2-.2s-.2 0-.2.1l-.7 1.9h-.1l.5-2.1c0-.1-.1-.3-.2-.3s-.2.1-.3.2l-.6 2.1h-.1l.3-1.8c0-.1-.1-.2-.2-.2s-.2.1-.2.2l-.6 2.6-.5-.9c-.1-.1-.2-.2-.4-.2h-.2l.5 1.6.3.8-1.7 5.9c-.2.6-.5 1.2-.9 1.7l-3.8 4.8 2 2 3.7-4.8c.4-.5.7-1.2.9-1.8l1.6-7.2.5-1.1.3-1 .9-1.6z"></path><path fill="#723C19" d="M83.5 81.8L80 85.4v1c0 .7.3 1.3.7 1.7.1-.1.2-.3.3-.4l4-3.9-1.5-2z"></path><path fill="#7ECFD7" d="M86.1 80.1l-1 .1c-.7.1-1.3.4-1.7.9l-3.1 3.4 2.2 2.8 2.6-2.2-.4 3.8H95l-.2-3.8 3.1-4.5-2.2-2.6-3.4 2.2-1.2.8c-.8.6-1.8.6-2.6.2l-1.6-.9c-.3-.2-.6-.3-.8-.2z"></path></g><g class="p-globe_illustration__avatars__center-top"><path fill="#F2606A" d="M125.9 27.2H116c-1.4 0-2.7-.3-3.9-.8-.5-.2-1-.5-1.5-.8l-1.2-.9a9.78 9.78 0 01-3.4-7.4c0-5.5 4.5-9.9 9.9-9.9 5.5 0 9.9 4.5 9.9 9.9v9.9z"></path><path fill="#4A154B" d="M115.3 12.6s-2.3-.9-3.4.4c-.2.3-.4.6-.5.8-.6.2-1 .8-1 1.4 0 .4.1.7.4 1 0 0 0 .1-.1.1-.9.9.7 1.3.2 2.3-.6 1 .8.7.4 2.1-.3.9.5 2.9 2.4 2.5 1-.2 1.7-.9 3.2-1 2.9-.1-1.6-9.6-1.6-9.6z"></path><path fill="#A9534F" d="M123.3 22.8c-.2-1.3-2.5-1.6-3.8-1.7-.5 0-.9-.4-1.1-.9l-.7-2.4c.3 0 1.1-.4.8-1.3-.3-1-.4-1.3-.7-1-.1-.5-.2-.8-.2-.8-.8-1.3-2.4-1.4-3.8-.8-1.3.6-2.4.6-.7 4.9.6 1.5 1.6 2 2.6 1.8v.1c0 .3-.2.5-.5.6-1 .1-3 .5-3.2 1.5-.4 1.3-.6 3.2-.6 3.2l7.4 3.4 2.4-5c1.3-.5 2.2-1 2.1-1.6z"></path><path d="M114.3 18.7h-.1c-.1 0-.1-.1-.2-.2l-.3-1.4V17h.1l.3 1.4c0 .1 0 .1.1.1h.1l.3-.2h.1v.1l-.3.2-.1.1z" opacity=".3"></path><path fill="#4A154B" d="M122.9 18.7c0-.3-.1-.6-.3-.8.4-.6 0-1.9-.8-2-.7-.1.6-1.8-1.4-2.1-2.4-.4-1.5-2.5-4.2-2.2-2.7.3-2.3 1.9-2.3 1.9s-.2 1.2 1.3 1.4c1.6.2.9 1.8 2.5 1.4.6-.1.8.1.9.5-1.1.2-2 1.3-2 2.5 0 1.4 1.1 2.5 2.5 2.5 1.1 0 2-.7 2.4-1.7.8 0 1.4-.6 1.4-1.4z"></path><path fill="#FDD4BE" d="M111.4 25.2v-1.5c0-.7.4-1.3 1.1-1.6l1.4-.6.2.3c.6 1 1.7 1.6 2.9 1.6s2.4-.7 3-1.8l.4-.8h.3c1.6 0 2.9 1.3 2.9 2.9v1.7h-4l-1 3-5.4-2-1.8-1.2z"></path><path d="M114.3 19.6c-.1-.1 0-.1 0-.1.3 0 .7-.1.9-.4h.1v.1c-.2.2-.6.4-1 .4z" opacity=".3"></path><path fill="#7F3E3B" d="M115.7 20.7s.3 0 .6-.2c0 0-.3.2-.6.3v-.1z"></path><path fill="#A9534F" d="M119.7 25.4l-1 3-3.6-2.3c-.9-.6-1.9-.9-3-.9h-.4c-.6 0-1 .1-1.4.2.1.1.2.2.3.2.5.3 1.2.7 1.7.9l6.7 5.7c.2.2.6.3.9.3.6 0 1.1-.4 1.3-1l1.9-6.2h-3.4z"></path></g><g class="p-globe_illustration__avatars__left-bottom"><circle fill="#2F8AB7" cx="71.2" cy="150.9" r="10.4"></circle><path fill="#F599A6" d="M71.2 161.3c3.6 0 6.8-1.9 8.7-4.7-.8-2.4-3.1-4.2-5.8-4.2h-6c-2.6 0-4.8 1.6-5.7 3.9 1.8 3 5.1 5 8.8 5z"></path><path fill="#EBC19C" d="M71.2 156.5c-1.1 0-2-.9-2-2v-1.9h4.1v1.9c-.1 1-1 2-2.1 2z"></path><path fill="#B09075" d="M69.1 154c.4.4 1.3.9 2 .9.8 0 1.6-.5 2.1-1v-1.4h-4.1v1.5z"></path><path fill="#EBC19C" d="M71.1 154.5c-2.3 0-4.2-1.9-4.2-4.2V147c0-2.1 1.7-3.9 3.9-3.9h.7c2.1 0 3.9 1.7 3.9 3.9v3.2c-.1 2.4-1.9 4.3-4.3 4.3z"></path><path fill="#EBC19C" d="M67.1 149.6v-2.4h-.6c-.4 0-.7.3-.7.7v.5c0 .6.6 1.2 1.3 1.2z"></path><path fill="#EBC19C" d="M75.3 149.6v-2.5h.6c.4 0 .7.3.7.7v.5c0 .7-.5 1.3-1.3 1.3z"></path><path fill="#F1F1F2" d="M73.3 151.3h-4.4l.1-.4c.1-.3.4-.5.7-.5h2.8c.3 0 .6.2.7.5l.1.4z"></path><path fill="#B09075" d="M71.3 150.4h-.6c-.1 0-.1 0-.1-.1s0-.1.1-.1h.6c.1 0 .1 0 .2-.1 0 0 .1-.1 0-.2l-.4-2s0-.1.1-.1c0 0 .1 0 .1.1l.4 2c0 .1 0 .2-.1.3-.1.2-.2.2-.3.2z"></path><path fill="#F1F1F2" d="M68.1 144.3v1.7c0 .1 0 .3-.1.4l-.6 1.5h-.2c-.2 0-.3-.1-.4-.2l-.3-.5c-.1-.2-.1-.5 0-.8l.5-1.4c.1-.4.5-.6.9-.6h.2z"></path><path fill="#F1F1F2" d="M74.3 144.3v1.7c0 .1 0 .3.1.4l.6 1.5h.2c.2 0 .3-.1.4-.2l.3-.5c.1-.2.1-.5 0-.8l-.5-1.4c-.1-.4-.5-.6-.9-.6h-.2z"></path><path d="M73.1 146.7c-.7 0-1.3.5-1.4 1.1-.4-.2-.8-.1-1.1 0-.1-.6-.7-1.1-1.4-1.1-.8 0-1.4.6-1.4 1.4s.6 1.4 1.4 1.4c.8 0 1.4-.6 1.4-1.3.1-.1.5-.3 1 0 .1.7.7 1.3 1.4 1.3.8 0 1.4-.6 1.4-1.4s-.5-1.4-1.3-1.4zm-3.9 2.6c-.6 0-1.1-.5-1.1-1.1 0-.6.5-1.1 1.1-1.1s1.1.5 1.1 1.1c0 .6-.5 1.1-1.1 1.1zm3.9 0c-.6 0-1.1-.5-1.1-1.1 0-.6.5-1.1 1.1-1.1s1.1.5 1.1 1.1c0 .6-.5 1.1-1.1 1.1z"></path><path fill="#B09075" d="M71.2 152.5c-.8 0-1.2-.4-1.3-.4v-.1h.1s.4.4 1.1.4 1.1-.4 1.1-.4h.1v.1c.2 0-.2.4-1.1.4z"></path></g><g class="p-globe_illustration__avatars__left-top"><path fill="#7ECFD7" d="M41.4 39.5H29c-.9 0-1.6-.7-1.6-1.6V25.5c0-.9.7-1.6 1.6-1.6h12.4c.9 0 1.6.7 1.6 1.6v12.4c-.1.9-.8 1.6-1.6 1.6z"></path><path fill="#F2606A" d="M35.3 22.1c-2.7 0-4.9 2.2-4.9 4.9v8h9.8v-8c0-2.7-2.2-4.9-4.9-4.9z"></path><path fill="#FAA11B" d="M27.4 37.9c0 .9.7 1.6 1.6 1.6h12.4c.9 0 1.6-.7 1.6-1.6v-1.2c-1.3-1.8-3.4-3-5.7-3h-3.8c-2.5 0-4.8 1.4-6 3.4v.8z"></path><path fill="#F0DBCB" d="M35.3 35.3c-1 0-1.8-.8-1.8-1.8v-2.4h3.6v2.4c0 1-.8 1.8-1.8 1.8z"></path><path fill="#B5A498" d="M35.2 33.6c.1 0 .1 0 0 0 .6 0 1.2-.3 1.5-.7l.9-1.1H33l.9 1.1c.3.5.8.7 1.3.7z"></path><path fill="#F0DBCB" d="M34.2 32.8l-1.3-.8c-.6-.4-.9-1.1-.9-1.8v-3.9h6.7v3.9c0 .7-.3 1.4-.9 1.8l-1.3.9c-.7.4-1.6.4-2.3-.1z"></path><path d="M35.4 30.2H35s-.1 0-.1-.1 0-.1.1-.1h.5c.1 0 .1 0 .1-.1v-.1l-.3-1.7s0-.1.1-.1.1 0 .1.1l.3 1.7c0 .1 0 .2-.1.3-.1.1-.2.1-.3.1z" opacity=".3"></path><path fill="#F0DBCB" d="M32 29.5v-1.6h-.4c-.3 0-.5.2-.5.5v.3c0 .4.4.8.9.8z"></path><path fill="#F0DBCB" d="M38.7 29.5v-1.6h.4c.3 0 .5.2.5.5v.3c0 .4-.4.8-.9.8z"></path><path fill="#FFFFFF" d="M39.1 29.1v.3c0 .1.1.2.2.2s.2-.1.2-.2 0-.2-.1-.2c0 0 0-.1.1-.1.1.1.2.2.2.3 0 .2-.2.4-.4.4s-.4-.2-.4-.4c.1-.1.2-.2.2-.3z"></path><path fill="#F0DBCB" d="M33.8 26.3l-.6-2 1.5 2z"></path><path fill="#F0DBCB" d="M35.3 26.3l-.2-.9.9.9z"></path><path d="M35.4 31.4c-.6 0-.9-.3-.9-.3V31h.1s.3.3.8.3.8-.3.8-.3h.1v.1s-.3.3-.9.3z" opacity=".3"></path></g><g class="p-globe_illustration__avatars__left-center"><circle fill="#7ECFD7" cx="28.1" cy="85.8" r="11.1"></circle><path fill="#FDD4BE" d="M30.1 82.8l1.7-1.9V77h-5.9v8.4h4.2z"></path><path fill="#FFFFFF" d="M37.4 90.6l.5-4-1.8-1.4c-.5-.4-1.1-.8-1.7-1-.1 0-.1-.1-.2-.1-.5-.2-.9-.4-1.4-.5l-2.8-.7v.1c0 1.2-1 2.2-2.2 2.2-1.2 0-2.1-.9-2.1-2.1v-.2l-2.7.6c-1.7.5-3.1 1.6-3.9 3.2l-1.4 2.9 3.6 1.7 1.1-1.6L22 95c1.7 1.1 3.8 1.8 6 1.8 2.3 0 4.4-.7 6.2-1.9l-.5-5 3.7.7z"></path><path fill="#FDD4BE" d="M30.1 81.8h.7c.3 0 .6-.3.6-.6s-.3-.6-.6-.6h-.7c-.3 0-.6.3-.6.6 0 .4.3.6.6.6z"></path><path fill="#F1606A" d="M28.5 77h.7c.3 0 .5.1.8.2.3.2.7.3 1.1.3h.4c.9-.2 1.5-.9 1.5-1.8 0-1-.9-1.8-1.9-1.8-.4 0-.7.1-1 .3-.4-.2-.8-.3-1.3-.3-.3 0-.5 0-.7.1l-1.3.2c-.4.1-.7.2-1 .4-1.7 1-1.5 3-1.1 4.1l1.2 2.2V79c0-.3.2-.5.5-.5s.5.2.5.5v2.5c0 1.1.9 2 2 2h1.7c.7 0 1.3-.6 1.3-1.3v-1.3c0-.4-.3-.7-.7-.7H30c-.4 0-.8.4-.8.8 0 .3-.2.5-.5.5s-.5-.2-.5-.5v-3.5c-.1-.3.1-.5.3-.5z"></path><path fill="#B3806A" d="M31.1 79.7h-.4s-.1 0-.1-.1 0-.1.1-.1h.4c.1 0 .1 0 .1-.1v-.1l-.3-1.3v-.1h.1l.3 1.4c0 .1 0 .2-.1.3l-.1.1z"></path><path fill="#B3806A" d="M30.5 81.4c-.2 0-.4 0-.6-.1 0 0-.1 0 0-.1 0 0 0-.1.1 0 .3.1.7.1 1 0h.1v.1c-.2 0-.4.1-.6.1z"></path><path fill="#FDD4BE" d="M30.1 81.8h.7c.3 0 .6-.3.6-.6s-.3-.6-.6-.6h-.7c-.3 0-.6.3-.6.6 0 .4.3.6.6.6z"></path><path fill="#B3806A" d="M30.5 81.4c-.2 0-.4 0-.6-.1v-.1h.1c.3.1.7.1 1 0h.1v.1c-.2 0-.4.1-.6.1z"></path><path fill="#FDD4BE" d="M18.1 89.8l-.2.5c.5 1.2 1.3 2.3 2.1 3.2l.9-2.3-2.8-1.4z"></path><path fill="#FDD4BE" d="M41.6 80.8l-.3-.9-.6-1.7h.2c.2 0 .3.1.4.2l.6.8.6-2.8.4.1-.3 1.9h.1l.6-2.2.5.1-.5 2.2h.1l.7-2 .4.2-.7 2.1h.1l.8-1.5.4.2-.8 1.6-.3 1-.5 1.1-2 7.6c-.2.8-.9 1.3-1.7 1.3l-2.4.1.5-3.5 1.6.3 2.1-6.2z"></path><circle fill="#FDD4BE" cx="45" cy="77.4" r=".2"></circle><circle fill="#FDD4BE" cx="44.4" cy="76.6" r=".2"></circle><circle fill="#FDD4BE" cx="43.6" cy="76.2" r=".3"></circle><circle fill="#FDD4BE" cx="42.7" cy="76.5" r=".2"></circle></g></g></svg>